# xmcd
#
# Track frame offsets:
#	150
#	20210
#	35701
#	52767
#	70278
#	86807
#	102000
#	119991
#	136213
#	160326
#	178493
#	197548
#	215964
#	232166
#	250805
#	263929
#	277943
#	296682
#	315930
#
# Disc length: 4429 seconds
#
# Revision: 0
# Processed by: cddbd v1.5PL3 Copyright (c) Steve Scherf et al.
# Submitted via: dBpowerAMP V4.0
#
DISCID=2b114b13
DTITLE=Gilberto Santa Rosa - Romantico
DYEAR=1900
DGENRE=Unknown
TTITLE0=A la distancia de un te quiero
TTITLE1=Amiga  mia
TTITLE2=Como He Podido Estar Sin Ti
TTITLE3=En la obscuridad
TTITLE4=En la soledad
TTITLE5=Mentira
TTITLE6=Mio
TTITLE7=Monologo
TTITLE8=No Pense Enamorarme Otra  Vez
TTITLE9=Nuestro balance
TTITLE10=Para vivir
TTITLE11=Por Mas Que Intento
TTITLE12=Pueden decir
TTITLE13=Que alguien me diga
TTITLE14=Se  Puede
TTITLE15=Sera
TTITLE16=Si Te Dijeron
TTITLE17=Tiemblas
TTITLE18=Un Amor Para La Historia
EXTD=Recopilacion debidamente pirateada por MarceloChile
EXTT0=
EXTT1=
EXTT2=
EXTT3=
EXTT4=
EXTT5=
EXTT6=
EXTT7=
EXTT8=
EXTT9=
EXTT10=
EXTT11=
EXTT12=
EXTT13=
EXTT14=
EXTT15=
EXTT16=
EXTT17=
EXTT18=
PLAYORDER=
